<svg style="position: absolute; width: 0; height: 0; overflow: hidden;" version="1.1" xmlns="http://www.w3.org/2000/svg" xmlns:xlink="http://www.w3.org/1999/xlink">
<defs>
<symbol id="icon-Checkmark04" viewBox="0 0 32 32">
<title>Checkmark04</title>
<path d="M32 6.22l-1.879-1.879-19.384 19.556-8.861-8.804-1.876 1.88 10.752 10.684 1.879-1.877-0.009-0.009z"></path>
</symbol>
<symbol id="icon-Checkmark05" viewBox="0 0 32 32">
<title>Checkmark05</title>
<path d="M23.451 16l8.549-8.549-3.205-3.206-17.040 17.040-8.551-8.551-3.204 3.21 8.549 8.548-0.060 0.062 3.206 3.204 8.549-8.551z"></path>
</symbol>
<symbol id="icon-Purchase" viewBox="0 0 32 32">
<title>Purchase</title>
<path d="M21.52 18.279c-0.226 0.151-0.389 0.308-0.489 0.468-0.1 0.165-0.116 0.368-0.041 0.613 0.056 0.18 0.14 0.313 0.252 0.4 0.033 0.025 0.068 0.048 0.105 0.066 0.165 0.080 0.396 0.128 0.691 0.142l-0.062-0.204-0.457-1.484zM23.831 21.262c-0.009-0.004-0.018-0.012-0.027-0.016-0.2-0.091-0.467-0.138-0.803-0.14l0.076 0.249 0.518 1.682c0.278-0.148 0.471-0.34 0.578-0.569 0.105-0.228 0.123-0.462 0.050-0.7-0.076-0.244-0.207-0.411-0.393-0.505z"></path>
<path d="M29.265 20.306c-0.006-0.098-0.007-0.198-0.018-0.297-0.013-0.138-0.037-0.276-0.060-0.413-0.013-0.078-0.020-0.156-0.036-0.236-0.044-0.216-0.098-0.431-0.164-0.647-0.519-1.692-1.668-3.080-3.236-3.908-0.22-0.117-0.448-0.219-0.68-0.309-0.071-0.028-0.146-0.052-0.219-0.077-0.164-0.058-0.326-0.11-0.492-0.155-0.084-0.022-0.167-0.043-0.251-0.062-0.165-0.038-0.332-0.068-0.498-0.092-0.078-0.012-0.156-0.024-0.234-0.034-0.213-0.023-0.43-0.036-0.646-0.039-0.018 0-0.037-0.002-0.056-0.004h-0.034l-0.085 0.003c-0.167 0.002-0.333 0.011-0.5 0.027-0.062 0.005-0.124 0.012-0.185 0.020-0.142 0.018-0.281 0.038-0.423 0.064-0.057 0.012-0.116 0.020-0.174 0.033-0.193 0.043-0.386 0.089-0.576 0.148-3.493 1.076-5.46 4.793-4.384 8.286 0.060 0.2 0.133 0.394 0.213 0.584 0.024 0.060 0.053 0.12 0.080 0.178 0.058 0.13 0.119 0.258 0.183 0.382l0.107 0.19c0.066 0.119 0.137 0.233 0.211 0.347 0.037 0.057 0.074 0.116 0.114 0.171 0.091 0.129 0.185 0.252 0.283 0.373l0.080 0.1c0.127 0.151 0.261 0.293 0.4 0.431 0.038 0.037 0.078 0.071 0.116 0.107 0.107 0.098 0.213 0.196 0.325 0.288 0.053 0.044 0.107 0.086 0.162 0.129 0.104 0.078 0.209 0.156 0.316 0.231l0.173 0.114c0.118 0.076 0.238 0.146 0.36 0.213 0.050 0.027 0.098 0.056 0.148 0.083 0.173 0.092 0.35 0.175 0.53 0.251l0.071 0.027c0.16 0.062 0.32 0.121 0.483 0.171l0.181 0.053c0.129 0.036 0.26 0.071 0.393 0.098 0.067 0.016 0.133 0.029 0.203 0.042 0.133 0.027 0.269 0.047 0.405 0.062 0.062 0.009 0.124 0.018 0.188 0.022 0.175 0.018 0.352 0.027 0.531 0.028 0.021 0 0.044 0.004 0.066 0.004h0.013c0.191 0 0.382-0.012 0.574-0.027 0.055-0.005 0.108-0.013 0.163-0.018 0.149-0.018 0.3-0.041 0.45-0.068l0.169-0.032c0.197-0.041 0.394-0.089 0.591-0.149 0.101-0.031 0.196-0.071 0.295-0.107 0-0.002 0.002-0.002 0.003-0.002 1.031-0.372 1.916-0.976 2.616-1.737l0.012-0.012c0.133-0.147 0.261-0.3 0.382-0.458l0.027-0.036c0.114-0.151 0.222-0.307 0.322-0.467 0.013-0.020 0.025-0.044 0.039-0.068 0.092-0.151 0.18-0.306 0.261-0.464 0.018-0.036 0.032-0.071 0.050-0.104 0.071-0.149 0.142-0.3 0.203-0.456l0.053-0.148c0.053-0.142 0.104-0.287 0.148-0.434 0.018-0.065 0.032-0.132 0.050-0.197 0.036-0.133 0.071-0.269 0.096-0.406 0.016-0.083 0.024-0.164 0.037-0.245 0.018-0.124 0.040-0.249 0.053-0.376 0.009-0.096 0.009-0.196 0.015-0.292 0.007-0.114 0.016-0.227 0.016-0.341s-0.007-0.226-0.013-0.341zM25.321 22.3c-0.062 0.315-0.204 0.604-0.422 0.866-0.018 0.021-0.033 0.044-0.052 0.065-0.249 0.278-0.578 0.5-0.987 0.667l0.135 0.436 0.089 0.292c0.053 0.173 0.076 0.306 0.066 0.396s-0.071 0.151-0.187 0.187c-0.044 0.014-0.085 0.018-0.124 0.015-0.049-0.002-0.092-0.014-0.128-0.043-0.062-0.053-0.113-0.145-0.155-0.28l-0.087-0.282-0.167-0.539c-0.16 0.027-0.311 0.044-0.458 0.052l-0.089 0.005c-0.027 0-0.053-0.003-0.080-0.004-0.047-0.003-0.094-0.004-0.142-0.009-0.068-0.003-0.142 0-0.208-0.009-0.297-0.046-0.557-0.132-0.788-0.264-0.229-0.13-0.413-0.283-0.557-0.456-0.142-0.173-0.244-0.356-0.302-0.547-0.044-0.14-0.028-0.284 0.046-0.432 0.077-0.148 0.196-0.246 0.361-0.297 0.071-0.021 0.136-0.031 0.199-0.032 0.057 0 0.113 0.005 0.165 0.021 0.11 0.033 0.201 0.1 0.27 0.202 0.153 0.218 0.279 0.382 0.378 0.492 0.012 0.013 0.028 0.023 0.041 0.037 0.092 0.091 0.2 0.169 0.332 0.231 0.062 0.027 0.133 0.046 0.206 0.062 0.013 0.002 0.023 0.009 0.037 0.011 0.027 0.005 0.062 0.005 0.092 0.007 0.056 0.007 0.11 0.018 0.172 0.018 0.014 0 0.027 0 0.040-0.002l-0.343-1.116-0.222-0.725-0.064-0.207c-0.172 0.005-0.325 0-0.476-0.004-0.056-0.002-0.113-0.002-0.164-0.006-0.053-0.002-0.098-0.011-0.149-0.015-0.044-0.004-0.086-0.009-0.129-0.012-0.064-0.006-0.127-0.012-0.182-0.020-0.308-0.055-0.58-0.178-0.821-0.375-0.24-0.196-0.42-0.489-0.539-0.876-0.156-0.504-0.124-0.969 0.098-1.391 0.224-0.422 0.631-0.754 1.224-0.993l-0.145-0.471-0.056-0.181c-0.076-0.246-0.020-0.4 0.164-0.456 0.042-0.014 0.080-0.018 0.118-0.014 0.012 0 0.023 0.005 0.036 0.007 0.023 0.005 0.046 0.013 0.068 0.027 0.012 0.006 0.021 0.014 0.032 0.020 0.018 0.018 0.038 0.039 0.055 0.062 0.009 0.012 0.018 0.020 0.024 0.033 0.021 0.040 0.043 0.084 0.060 0.139l0.007 0.023 0.196 0.638c0.146-0.029 0.28-0.044 0.412-0.056l0.107-0.007c0.086-0.004 0.167 0 0.246 0.004 0.032 0.003 0.071 0 0.102 0.003h0.003c0.254 0.028 0.496 0.116 0.724 0.26 0.178 0.11 0.327 0.231 0.449 0.368 0.121 0.139 0.203 0.272 0.243 0.404 0.044 0.148 0.029 0.293-0.044 0.431-0.074 0.14-0.187 0.234-0.34 0.281-0.071 0.021-0.137 0.031-0.202 0.030-0.009 0-0.018-0.004-0.025-0.004-0.050-0.003-0.098-0.012-0.144-0.029-0.018-0.006-0.033-0.014-0.050-0.022-0.038-0.018-0.075-0.043-0.11-0.071l-0.043-0.036c-0.039-0.038-0.075-0.084-0.109-0.133-0.009-0.012-0.018-0.018-0.023-0.029-0.092-0.145-0.204-0.254-0.329-0.338-0.169-0.112-0.364-0.175-0.597-0.178l0.507 1.646 0.058 0.187h0.031c0.14-0.004 0.271-0.005 0.393-0.006h0.071c0.060 0 0.116 0 0.169 0.002h0.076c0.014 0 0.025 0.003 0.039 0.003 0.060 0.002 0.121 0.004 0.172 0.009 0.243 0.015 0.473 0.075 0.692 0.178 0.231 0.105 0.429 0.255 0.599 0.45l0.007 0.009c0.164 0.194 0.286 0.421 0.367 0.686 0.11 0.332 0.129 0.669 0.062 1.010z"></path>
<path d="M24.889 13.029v-5.968c0-0.613-0.487-0.839-1.1-0.839h-3.398c-0.269-3.556-3.056-6.222-6.45-6.222h-0.093c-3.395 0-6.18 2.667-6.449 6.222h-3.464c-0.613 0-1.268 0.227-1.268 0.839v23.829c0 0.613 0.654 1.109 1.268 1.109h19.854c0.613 0 1.1-0.498 1.1-1.109v-2.593c-0.889 0.212-1.778 0.323-2.667 0.325v1.599h-16.889v-22.222h1.778v2.502c0 0.613 0.72 1.109 1.333 1.109s1.333-0.498 1.333-1.109v-2.502h8v2.502c0 0.613 0.72 1.109 1.333 1.109s1.333-0.498 1.333-1.109v-2.502h1.778v4.702c0.889 0 1.778 0.114 2.667 0.327zM9.627 6.222c0.26-2.667 2.053-4.444 4.22-4.444h0.093c2.169 0 3.962 1.778 4.222 4.444h-8.536z"></path>
</symbol>
<symbol id="icon-Edit" viewBox="0 0 32 32">
<title>Edit</title>
<path d="M28.938 9.884l-7.222-6.924 3.062-2.926 7.222 6.992-3.062 2.858zM9.076 29.611l-6.723-6.72 17.144-17.575 7.428 6.511-17.849 17.787zM0 31.967v-6.791l6.791 6.791h-6.791z"></path>
</symbol>
<symbol id="icon-Edit02" viewBox="0 0 32 32">
<title>Edit02</title>
<path d="M29.5 1.205l1.293 1.294c1.609 1.609 1.609 4.213 0 5.822l-2.264 2.263-7.116-7.115 2.267-2.264c1.604-1.609 4.213-1.609 5.82 0zM9.769 29.348l-7.116-7.118 17.467-17.465 7.116 7.116-17.467 17.467zM2.007 24.818l5.175 5.175-7.182 2.007 2.007-7.182z"></path>
</symbol>
<symbol id="icon-Down-Right02" viewBox="0 0 32 32">
<title>Down-Right02</title>
<path d="M27.967 6.661h-3.692v15.007l-17.633-17.633-2.61 2.608 17.633 17.632h-15.006l0.004 3.689h21.301z"></path>
</symbol>
<symbol id="icon-Down-Right03" viewBox="0 0 32 32">
<title>Down-Right03</title>
<path d="M3.747 8.137l14.253 14.254h-14.572l6.18 6.178h18.96l0.002-18.96-6.18-6.178-0.002 14.567-14.252-14.252-4.391 4.391z"></path>
</symbol>
<symbol id="icon-Checkmark-Circular-Filled" viewBox="0 0 32 32">
<title>Checkmark-Circular-Filled</title>
<path d="M16 0c-8.836 0-16 7.164-16 16s7.164 16 16 16 16-7.164 16-16-7.164-16-16-16zM13.852 25.778l-8.519-8.519 2.556-2.556 5.964 5.964 9.369-11.926 2.556 2.555-11.925 14.482z"></path>
</symbol>
<symbol id="icon-Information02-Circular-Filled" viewBox="0 0 32 32">
<title>Information02-Circular-Filled</title>
<path d="M16 0c-8.836 0-16 7.163-16 16s7.164 16 16 16c8.837 0 16-7.163 16-16s-7.164-16-16-16zM18.053 4.955c0.64-0.002 1.148 0.244 1.476 0.631s0.476 0.966 0.476 1.486c0 1.351-1.073 2.706-2.571 2.706h-0.038c-1.173 0-1.905-0.942-1.914-2.212 0.003-1.091 0.88-2.604 2.572-2.612zM19.991 22.821c-2.238 2.444-4.998 3.845-6.048 3.845h-0.007c-0.356 0-0.724-0.024-0.991-0.315-0.268-0.293-0.407-0.702-0.407-1.338 0-0.486 0.080-1.52 0.262-2.277l1.605-6.907c0.077-0.386 0.121-0.653 0.124-0.794-0.279 0.101-1.5 0.997-2.103 1.465l-0.213 0.162-0.625-1.698 0.122-0.114c2.26-2.089 4.974-3.763 6.22-3.778 0.356-0.005 0.667 0.176 0.834 0.469 0.172 0.29 0.238 0.665 0.238 1.12 0 0.492-0.083 1.52-0.237 2.189l-1.762 7.17c-0.084 0.344-0.117 0.596-0.117 0.756 0 0.089 0.012 0.148 0.020 0.174 0.188-0.022 1.44-0.88 2.249-1.625l0.191-0.172 0.667 1.467 0.094 0.107-0.116 0.094z"></path>
</symbol>
<symbol id="icon-Eye" viewBox="0 0 32 32">
<title>Eye</title>
<path d="M16.018 5.369v0.004c-10.393 0-16.018 10.397-16.018 10.397v0.391s5.591 10.468 15.982 10.468c10.389 0 16.018-10.398 16.018-10.398v-0.393s-5.596-10.469-15.982-10.469zM15.949 22.501v0.004c-3.515 0-6.364-2.853-6.364-6.363 0-3.52 2.853-6.368 6.364-6.368 3.516 0 6.367 2.853 6.367 6.364 0 3.514-2.848 6.363-6.367 6.363z"></path>
<path d="M18.863 16.101c0 1.609-1.305 2.914-2.914 2.914s-2.914-1.305-2.914-2.914c0-1.609 1.305-2.914 2.914-2.914s2.914 1.305 2.914 2.914z"></path>
</symbol>
</defs>
</svg>
